<mxfile host="app.diagrams.net" agent="Mozilla/5.0 (Macintosh; Intel Mac OS X 10_15_7) AppleWebKit/537.36 (KHTML, like Gecko) Chrome/127.0.0.0 Safari/537.36 Edg/127.0.0.0" version="24.7.7" pages="2">
  <diagram id="C5RBs43oDa-KdzZeNtuy" name="Full">
    <mxGraphModel dx="1693" dy="883" grid="1" gridSize="10" guides="1" tooltips="1" connect="1" arrows="1" fold="1" page="1" pageScale="1" pageWidth="1600" pageHeight="900" math="0" shadow="0">
      <root>
        <mxCell id="WIyWlLk6GJQsqaUBKTNV-0" />
        <mxCell id="WIyWlLk6GJQsqaUBKTNV-1" parent="WIyWlLk6GJQsqaUBKTNV-0" />
        <mxCell id="3dYXH3wcypNw3MDqK7I_-55" style="edgeStyle=orthogonalEdgeStyle;rounded=0;orthogonalLoop=1;jettySize=auto;html=1;entryX=0;entryY=0.25;entryDx=0;entryDy=0;" edge="1" parent="WIyWlLk6GJQsqaUBKTNV-1" source="3dYXH3wcypNw3MDqK7I_-1" target="3dYXH3wcypNw3MDqK7I_-42">
          <mxGeometry relative="1" as="geometry">
            <Array as="points">
              <mxPoint x="520" y="368" />
              <mxPoint x="520" y="368" />
            </Array>
          </mxGeometry>
        </mxCell>
        <mxCell id="3dYXH3wcypNw3MDqK7I_-1" value="&lt;b&gt;Mood Tracker Agent&lt;/b&gt;&lt;div&gt;Goal: Update mood given new chats, activity results, time, etc.&lt;/div&gt;&lt;div&gt;Output: Concise mood summary&lt;/div&gt;&lt;div&gt;Ex: &quot;[Today 4:20 AM] Very happy and outgoing, but starting to feel tired.&quot;&lt;/div&gt;" style="rounded=0;whiteSpace=wrap;html=1;fontSize=12;glass=0;strokeWidth=1;shadow=0;labelBackgroundColor=none;fillColor=#A8DADC;strokeColor=#457B9D;fontColor=#1D3557;" vertex="1" parent="WIyWlLk6GJQsqaUBKTNV-1">
          <mxGeometry x="280" y="290" width="210" height="110" as="geometry" />
        </mxCell>
        <mxCell id="3dYXH3wcypNw3MDqK7I_-29" style="edgeStyle=orthogonalEdgeStyle;rounded=0;orthogonalLoop=1;jettySize=auto;html=1;entryX=0.5;entryY=1;entryDx=0;entryDy=0;" edge="1" parent="WIyWlLk6GJQsqaUBKTNV-1" source="3dYXH3wcypNw3MDqK7I_-3" target="3dYXH3wcypNw3MDqK7I_-21">
          <mxGeometry relative="1" as="geometry" />
        </mxCell>
        <mxCell id="3dYXH3wcypNw3MDqK7I_-54" style="edgeStyle=orthogonalEdgeStyle;rounded=0;orthogonalLoop=1;jettySize=auto;html=1;entryX=1;entryY=0.5;entryDx=0;entryDy=0;" edge="1" parent="WIyWlLk6GJQsqaUBKTNV-1">
          <mxGeometry relative="1" as="geometry">
            <mxPoint x="1130" y="360" as="sourcePoint" />
            <mxPoint x="940" y="385" as="targetPoint" />
            <Array as="points">
              <mxPoint x="1130" y="385" />
            </Array>
          </mxGeometry>
        </mxCell>
        <mxCell id="3dYXH3wcypNw3MDqK7I_-3" value="&lt;b&gt;Discord Chat Parser Agent&lt;/b&gt;&lt;div&gt;Goal: Get the gist of recent/new text messages, turning images, long texts, etc. into a more useable form.&lt;/div&gt;&lt;div&gt;Output: Concise, text-based message history&lt;/div&gt;" style="rounded=0;whiteSpace=wrap;html=1;fontSize=12;glass=0;strokeWidth=1;shadow=0;labelBackgroundColor=none;fillColor=#A8DADC;strokeColor=#457B9D;fontColor=#1D3557;" vertex="1" parent="WIyWlLk6GJQsqaUBKTNV-1">
          <mxGeometry x="1130" y="320" width="170" height="120" as="geometry" />
        </mxCell>
        <mxCell id="3dYXH3wcypNw3MDqK7I_-17" value="&lt;b&gt;Discord Chat Query Tool&lt;/b&gt;&lt;div&gt;Find specific things, like an image URL, or answer questions about chat history.&lt;/div&gt;" style="ellipse;whiteSpace=wrap;html=1;fillColor=#FFD966;" vertex="1" parent="WIyWlLk6GJQsqaUBKTNV-1">
          <mxGeometry x="1340" y="40" width="240" height="90" as="geometry" />
        </mxCell>
        <mxCell id="3dYXH3wcypNw3MDqK7I_-21" value="&lt;b&gt;Image Query Tool&lt;/b&gt;&lt;div&gt;&lt;span style=&quot;color: rgb(29, 53, 87);&quot;&gt;Given an image and a query, answer the query accurately and completely with text, with an LLM and reverse image search.&lt;/span&gt;&lt;br&gt;&lt;/div&gt;" style="ellipse;whiteSpace=wrap;html=1;fillColor=#FFD966;" vertex="1" parent="WIyWlLk6GJQsqaUBKTNV-1">
          <mxGeometry x="1120" y="170" width="190" height="100" as="geometry" />
        </mxCell>
        <mxCell id="3dYXH3wcypNw3MDqK7I_-27" style="edgeStyle=orthogonalEdgeStyle;rounded=0;orthogonalLoop=1;jettySize=auto;html=1;entryX=0;entryY=0.5;entryDx=0;entryDy=0;" edge="1" parent="WIyWlLk6GJQsqaUBKTNV-1" source="3dYXH3wcypNw3MDqK7I_-22" target="3dYXH3wcypNw3MDqK7I_-26">
          <mxGeometry relative="1" as="geometry" />
        </mxCell>
        <mxCell id="3dYXH3wcypNw3MDqK7I_-28" value="" style="edgeStyle=orthogonalEdgeStyle;rounded=0;orthogonalLoop=1;jettySize=auto;html=1;" edge="1" parent="WIyWlLk6GJQsqaUBKTNV-1" source="3dYXH3wcypNw3MDqK7I_-22" target="3dYXH3wcypNw3MDqK7I_-26">
          <mxGeometry relative="1" as="geometry" />
        </mxCell>
        <mxCell id="3dYXH3wcypNw3MDqK7I_-22" value="&lt;b&gt;Discord Chat Sender Agent&lt;/b&gt;&lt;div&gt;Goal: Given info needed to send a response, convey a desired message/tone in a consistent, Discord-appropriate style, possibly with &amp;gt;1 message.&lt;/div&gt;&lt;div&gt;Output: Text(s) to send&lt;/div&gt;" style="rounded=0;whiteSpace=wrap;html=1;fontSize=12;glass=0;strokeWidth=1;shadow=0;labelBackgroundColor=none;fillColor=#A8DADC;strokeColor=#FF0000;fontColor=#1D3557;" vertex="1" parent="WIyWlLk6GJQsqaUBKTNV-1">
          <mxGeometry x="1070" y="465" width="230" height="100" as="geometry" />
        </mxCell>
        <mxCell id="3dYXH3wcypNw3MDqK7I_-24" value="Boxes: Agents&lt;div&gt;Ovals: Tools&lt;/div&gt;&lt;div&gt;Hexagons: Code&lt;/div&gt;&lt;div&gt;Red: NSFW Model&lt;/div&gt;" style="shape=process;whiteSpace=wrap;html=1;backgroundOutline=1;fillColor=#97D077;fontStyle=0" vertex="1" parent="WIyWlLk6GJQsqaUBKTNV-1">
          <mxGeometry x="20" y="20" width="200" height="80" as="geometry" />
        </mxCell>
        <mxCell id="3dYXH3wcypNw3MDqK7I_-26" value="&lt;span style=&quot;color: rgb(29, 53, 87);&quot;&gt;Send messages with simulated delays, stopping if someone else is typing/sends a new text&lt;/span&gt;" style="shape=hexagon;perimeter=hexagonPerimeter2;whiteSpace=wrap;html=1;fixedSize=1;fillColor=#C3ABD0;" vertex="1" parent="WIyWlLk6GJQsqaUBKTNV-1">
          <mxGeometry x="1340" y="475" width="200" height="80" as="geometry" />
        </mxCell>
        <mxCell id="3dYXH3wcypNw3MDqK7I_-33" value="" style="ellipse;whiteSpace=wrap;html=1;fillColor=#FFD966;" vertex="1" parent="WIyWlLk6GJQsqaUBKTNV-1">
          <mxGeometry x="90" y="400" width="170" height="100" as="geometry" />
        </mxCell>
        <mxCell id="3dYXH3wcypNw3MDqK7I_-31" value="" style="ellipse;whiteSpace=wrap;html=1;fillColor=#FFD966;" vertex="1" parent="WIyWlLk6GJQsqaUBKTNV-1">
          <mxGeometry x="100" y="410" width="170" height="100" as="geometry" />
        </mxCell>
        <mxCell id="3dYXH3wcypNw3MDqK7I_-32" value="&lt;b&gt;Activity Tools&lt;/b&gt;&lt;div&gt;Do things specific to each activity (work, eat, sleep, games). Text/VC are not activites.&lt;/div&gt;" style="ellipse;whiteSpace=wrap;html=1;fillColor=#FFD966;" vertex="1" parent="WIyWlLk6GJQsqaUBKTNV-1">
          <mxGeometry x="110" y="420" width="170" height="100" as="geometry" />
        </mxCell>
        <mxCell id="3dYXH3wcypNw3MDqK7I_-35" style="edgeStyle=orthogonalEdgeStyle;rounded=0;orthogonalLoop=1;jettySize=auto;html=1;entryX=1;entryY=0.5;entryDx=0;entryDy=0;" edge="1" parent="WIyWlLk6GJQsqaUBKTNV-1" source="3dYXH3wcypNw3MDqK7I_-34" target="3dYXH3wcypNw3MDqK7I_-32">
          <mxGeometry relative="1" as="geometry" />
        </mxCell>
        <mxCell id="3dYXH3wcypNw3MDqK7I_-34" value="&lt;b&gt;Activity User Agent&lt;/b&gt;&lt;div&gt;Goal: Convert desired actions of Bob into activity tool usage.&lt;/div&gt;&lt;div&gt;Output: Matching tool calls&lt;/div&gt;&lt;div&gt;Ex: chess.send_invite_link()&lt;/div&gt;" style="rounded=0;whiteSpace=wrap;html=1;fontSize=12;glass=0;strokeWidth=1;shadow=0;labelBackgroundColor=none;fillColor=#A8DADC;strokeColor=#457B9D;fontColor=#1D3557;" vertex="1" parent="WIyWlLk6GJQsqaUBKTNV-1">
          <mxGeometry x="320" y="417.5" width="170" height="105" as="geometry" />
        </mxCell>
        <mxCell id="3dYXH3wcypNw3MDqK7I_-37" style="edgeStyle=orthogonalEdgeStyle;rounded=0;orthogonalLoop=1;jettySize=auto;html=1;exitX=0.5;exitY=1;exitDx=0;exitDy=0;entryX=0;entryY=0.5;entryDx=0;entryDy=0;" edge="1" parent="WIyWlLk6GJQsqaUBKTNV-1" source="3dYXH3wcypNw3MDqK7I_-32" target="3dYXH3wcypNw3MDqK7I_-36">
          <mxGeometry relative="1" as="geometry">
            <mxPoint x="230" y="650" as="targetPoint" />
          </mxGeometry>
        </mxCell>
        <mxCell id="3dYXH3wcypNw3MDqK7I_-36" value="&lt;b&gt;Status Tracker Agent (?)&lt;/b&gt;&lt;div&gt;Goal: Update status given info about current activities.&lt;/div&gt;&lt;div&gt;Output: Concise status summary&lt;/div&gt;&lt;div&gt;Ex: &quot;[Today 4:20 AM] Playing League coop vs. AI as Zoe, game time 10:42&quot;&lt;/div&gt;" style="rounded=0;whiteSpace=wrap;html=1;fontSize=12;glass=0;strokeWidth=1;shadow=0;labelBackgroundColor=none;fillColor=#A8DADC;strokeColor=#457B9D;fontColor=#1D3557;" vertex="1" parent="WIyWlLk6GJQsqaUBKTNV-1">
          <mxGeometry x="320" y="545" width="210" height="110" as="geometry" />
        </mxCell>
        <mxCell id="3dYXH3wcypNw3MDqK7I_-39" style="edgeStyle=orthogonalEdgeStyle;rounded=0;orthogonalLoop=1;jettySize=auto;html=1;entryX=0;entryY=0.75;entryDx=0;entryDy=0;" edge="1" parent="WIyWlLk6GJQsqaUBKTNV-1" source="3dYXH3wcypNw3MDqK7I_-38" target="3dYXH3wcypNw3MDqK7I_-36">
          <mxGeometry relative="1" as="geometry" />
        </mxCell>
        <mxCell id="3dYXH3wcypNw3MDqK7I_-38" value="&lt;span style=&quot;color: rgb(29, 53, 87);&quot;&gt;Periodic updates&lt;/span&gt;" style="shape=hexagon;perimeter=hexagonPerimeter2;whiteSpace=wrap;html=1;fixedSize=1;fillColor=#C3ABD0;" vertex="1" parent="WIyWlLk6GJQsqaUBKTNV-1">
          <mxGeometry x="125" y="612" width="140" height="31" as="geometry" />
        </mxCell>
        <mxCell id="3dYXH3wcypNw3MDqK7I_-41" style="edgeStyle=orthogonalEdgeStyle;rounded=0;orthogonalLoop=1;jettySize=auto;html=1;entryX=0;entryY=0.75;entryDx=0;entryDy=0;" edge="1" parent="WIyWlLk6GJQsqaUBKTNV-1" source="3dYXH3wcypNw3MDqK7I_-40" target="3dYXH3wcypNw3MDqK7I_-1">
          <mxGeometry relative="1" as="geometry" />
        </mxCell>
        <mxCell id="3dYXH3wcypNw3MDqK7I_-40" value="&lt;span style=&quot;color: rgb(29, 53, 87);&quot;&gt;Periodic updates&lt;/span&gt;" style="shape=hexagon;perimeter=hexagonPerimeter2;whiteSpace=wrap;html=1;fixedSize=1;fillColor=#C3ABD0;" vertex="1" parent="WIyWlLk6GJQsqaUBKTNV-1">
          <mxGeometry x="90" y="307" width="140" height="31" as="geometry" />
        </mxCell>
        <mxCell id="3dYXH3wcypNw3MDqK7I_-57" style="edgeStyle=orthogonalEdgeStyle;rounded=0;orthogonalLoop=1;jettySize=auto;html=1;entryX=1;entryY=0.5;entryDx=0;entryDy=0;" edge="1" parent="WIyWlLk6GJQsqaUBKTNV-1" source="3dYXH3wcypNw3MDqK7I_-42" target="3dYXH3wcypNw3MDqK7I_-34">
          <mxGeometry relative="1" as="geometry" />
        </mxCell>
        <mxCell id="3dYXH3wcypNw3MDqK7I_-61" style="edgeStyle=orthogonalEdgeStyle;rounded=0;orthogonalLoop=1;jettySize=auto;html=1;exitX=1;exitY=0.75;exitDx=0;exitDy=0;entryX=0;entryY=0.5;entryDx=0;entryDy=0;" edge="1" parent="WIyWlLk6GJQsqaUBKTNV-1" source="3dYXH3wcypNw3MDqK7I_-42" target="3dYXH3wcypNw3MDqK7I_-22">
          <mxGeometry relative="1" as="geometry" />
        </mxCell>
        <mxCell id="3dYXH3wcypNw3MDqK7I_-80" style="edgeStyle=orthogonalEdgeStyle;rounded=0;orthogonalLoop=1;jettySize=auto;html=1;entryX=0.5;entryY=0;entryDx=0;entryDy=0;" edge="1" parent="WIyWlLk6GJQsqaUBKTNV-1" source="3dYXH3wcypNw3MDqK7I_-42" target="3dYXH3wcypNw3MDqK7I_-43">
          <mxGeometry relative="1" as="geometry" />
        </mxCell>
        <mxCell id="3dYXH3wcypNw3MDqK7I_-42" value="&lt;b&gt;Decision Making Agent&lt;/b&gt;&lt;div&gt;Goal: Given a concise message history, current mood/status, agent descriptions, and activity descriptions, decide whether to respond to the message. If so, call helper agents/tools as needed to prep for a response.&lt;/div&gt;&lt;div&gt;Output: Decision to not respond, or a (possibly multi-turn) chain of calls to collect info for a response.&lt;/div&gt;" style="rounded=0;whiteSpace=wrap;html=1;fontSize=12;glass=0;strokeWidth=1;shadow=0;labelBackgroundColor=none;fillColor=#A8DADC;strokeColor=#457B9D;fontColor=#1D3557;" vertex="1" parent="WIyWlLk6GJQsqaUBKTNV-1">
          <mxGeometry x="630" y="320" width="310" height="190" as="geometry" />
        </mxCell>
        <mxCell id="3dYXH3wcypNw3MDqK7I_-78" style="edgeStyle=orthogonalEdgeStyle;rounded=0;orthogonalLoop=1;jettySize=auto;html=1;entryX=0.5;entryY=0;entryDx=0;entryDy=0;" edge="1" parent="WIyWlLk6GJQsqaUBKTNV-1" source="3dYXH3wcypNw3MDqK7I_-43" target="3dYXH3wcypNw3MDqK7I_-62">
          <mxGeometry relative="1" as="geometry" />
        </mxCell>
        <mxCell id="3dYXH3wcypNw3MDqK7I_-43" value="&lt;b&gt;Memory Researcher Agent&lt;/b&gt;&lt;div&gt;Goal: Given a query, use short/long-term memory lookups to answer it, or say no relevant info exists.&lt;/div&gt;&lt;div&gt;Output: Accurate and complete answer&lt;/div&gt;" style="rounded=0;whiteSpace=wrap;html=1;fontSize=12;glass=0;strokeWidth=1;shadow=0;labelBackgroundColor=none;fillColor=#A8DADC;strokeColor=#457B9D;fontColor=#1D3557;" vertex="1" parent="WIyWlLk6GJQsqaUBKTNV-1">
          <mxGeometry x="680" y="555" width="210" height="90" as="geometry" />
        </mxCell>
        <mxCell id="3dYXH3wcypNw3MDqK7I_-44" value="&lt;b&gt;Web Search Tool&lt;/b&gt;&lt;div&gt;Search a given query on the web, returning website URLs and snippets.&lt;/div&gt;" style="ellipse;whiteSpace=wrap;html=1;fillColor=#FFD966;" vertex="1" parent="WIyWlLk6GJQsqaUBKTNV-1">
          <mxGeometry x="750" y="40" width="150" height="90" as="geometry" />
        </mxCell>
        <mxCell id="3dYXH3wcypNw3MDqK7I_-45" value="&lt;b&gt;Website Query Tool&lt;/b&gt;&lt;div&gt;Given a URL and a query, answer the query accurately and completely with text.&lt;/div&gt;" style="ellipse;whiteSpace=wrap;html=1;fillColor=#FFD966;" vertex="1" parent="WIyWlLk6GJQsqaUBKTNV-1">
          <mxGeometry x="910" y="40" width="170" height="90" as="geometry" />
        </mxCell>
        <mxCell id="3dYXH3wcypNw3MDqK7I_-47" style="edgeStyle=orthogonalEdgeStyle;rounded=0;orthogonalLoop=1;jettySize=auto;html=1;exitX=0.25;exitY=0;exitDx=0;exitDy=0;entryX=0.5;entryY=1;entryDx=0;entryDy=0;" edge="1" parent="WIyWlLk6GJQsqaUBKTNV-1" source="3dYXH3wcypNw3MDqK7I_-46" target="3dYXH3wcypNw3MDqK7I_-44">
          <mxGeometry relative="1" as="geometry" />
        </mxCell>
        <mxCell id="3dYXH3wcypNw3MDqK7I_-48" style="edgeStyle=orthogonalEdgeStyle;rounded=0;orthogonalLoop=1;jettySize=auto;html=1;exitX=0.75;exitY=0;exitDx=0;exitDy=0;entryX=0.5;entryY=1;entryDx=0;entryDy=0;" edge="1" parent="WIyWlLk6GJQsqaUBKTNV-1" source="3dYXH3wcypNw3MDqK7I_-46" target="3dYXH3wcypNw3MDqK7I_-45">
          <mxGeometry relative="1" as="geometry" />
        </mxCell>
        <mxCell id="3dYXH3wcypNw3MDqK7I_-50" style="edgeStyle=orthogonalEdgeStyle;rounded=0;orthogonalLoop=1;jettySize=auto;html=1;exitX=1;exitY=0.5;exitDx=0;exitDy=0;entryX=0;entryY=0.5;entryDx=0;entryDy=0;" edge="1" parent="WIyWlLk6GJQsqaUBKTNV-1" source="3dYXH3wcypNw3MDqK7I_-46" target="3dYXH3wcypNw3MDqK7I_-49">
          <mxGeometry relative="1" as="geometry">
            <Array as="points">
              <mxPoint x="1100" y="205" />
              <mxPoint x="1100" y="110" />
            </Array>
          </mxGeometry>
        </mxCell>
        <mxCell id="3dYXH3wcypNw3MDqK7I_-75" style="edgeStyle=orthogonalEdgeStyle;rounded=0;orthogonalLoop=1;jettySize=auto;html=1;exitX=1;exitY=0.5;exitDx=0;exitDy=0;entryX=0;entryY=0.5;entryDx=0;entryDy=0;" edge="1" parent="WIyWlLk6GJQsqaUBKTNV-1" source="3dYXH3wcypNw3MDqK7I_-46" target="3dYXH3wcypNw3MDqK7I_-74">
          <mxGeometry relative="1" as="geometry">
            <Array as="points">
              <mxPoint x="1100" y="205" />
              <mxPoint x="1100" y="35" />
            </Array>
          </mxGeometry>
        </mxCell>
        <mxCell id="3dYXH3wcypNw3MDqK7I_-76" style="edgeStyle=orthogonalEdgeStyle;rounded=0;orthogonalLoop=1;jettySize=auto;html=1;exitX=1;exitY=0.5;exitDx=0;exitDy=0;entryX=0;entryY=0.5;entryDx=0;entryDy=0;" edge="1" parent="WIyWlLk6GJQsqaUBKTNV-1" source="3dYXH3wcypNw3MDqK7I_-46" target="3dYXH3wcypNw3MDqK7I_-21">
          <mxGeometry relative="1" as="geometry">
            <Array as="points">
              <mxPoint x="1100" y="205" />
              <mxPoint x="1100" y="220" />
            </Array>
          </mxGeometry>
        </mxCell>
        <mxCell id="3dYXH3wcypNw3MDqK7I_-46" value="&lt;b&gt;Web Researcher Agent&lt;/b&gt;&lt;div&gt;Goal: Given a query, use web searches and website lookups to answer it.&lt;/div&gt;&lt;div&gt;Output: Accurate and complete answer&lt;/div&gt;&lt;div&gt;Ex: &quot;How many League champs?&amp;nbsp;→ There are 168 champs right now.&quot;&lt;/div&gt;" style="rounded=0;whiteSpace=wrap;html=1;fontSize=12;glass=0;strokeWidth=1;shadow=0;labelBackgroundColor=none;fillColor=#A8DADC;strokeColor=#457B9D;fontColor=#1D3557;" vertex="1" parent="WIyWlLk6GJQsqaUBKTNV-1">
          <mxGeometry x="800" y="150" width="220" height="110" as="geometry" />
        </mxCell>
        <mxCell id="3dYXH3wcypNw3MDqK7I_-49" value="&lt;b&gt;Image Search Tool&lt;/b&gt;&lt;div&gt;&lt;span style=&quot;color: rgb(29, 53, 87);&quot;&gt;Search a given query on the web, returning relevant image URLs.&lt;/span&gt;&lt;br&gt;&lt;/div&gt;" style="ellipse;whiteSpace=wrap;html=1;fillColor=#FFD966;" vertex="1" parent="WIyWlLk6GJQsqaUBKTNV-1">
          <mxGeometry x="1120" y="70" width="190" height="80" as="geometry" />
        </mxCell>
        <mxCell id="3dYXH3wcypNw3MDqK7I_-53" style="edgeStyle=orthogonalEdgeStyle;rounded=0;orthogonalLoop=1;jettySize=auto;html=1;entryX=1;entryY=0.5;entryDx=0;entryDy=0;" edge="1" parent="WIyWlLk6GJQsqaUBKTNV-1" source="3dYXH3wcypNw3MDqK7I_-52" target="3dYXH3wcypNw3MDqK7I_-3">
          <mxGeometry relative="1" as="geometry" />
        </mxCell>
        <mxCell id="3dYXH3wcypNw3MDqK7I_-52" value="&lt;span style=&quot;color: rgb(29, 53, 87);&quot;&gt;New message (pinged or not)&lt;/span&gt;" style="shape=hexagon;perimeter=hexagonPerimeter2;whiteSpace=wrap;html=1;fixedSize=1;fillColor=#C3ABD0;" vertex="1" parent="WIyWlLk6GJQsqaUBKTNV-1">
          <mxGeometry x="1340" y="365" width="190" height="30" as="geometry" />
        </mxCell>
        <mxCell id="3dYXH3wcypNw3MDqK7I_-58" style="edgeStyle=orthogonalEdgeStyle;rounded=0;orthogonalLoop=1;jettySize=auto;html=1;entryX=0.074;entryY=1;entryDx=0;entryDy=0;entryPerimeter=0;" edge="1" parent="WIyWlLk6GJQsqaUBKTNV-1" source="3dYXH3wcypNw3MDqK7I_-36" target="3dYXH3wcypNw3MDqK7I_-42">
          <mxGeometry relative="1" as="geometry" />
        </mxCell>
        <mxCell id="3dYXH3wcypNw3MDqK7I_-60" style="edgeStyle=orthogonalEdgeStyle;rounded=0;orthogonalLoop=1;jettySize=auto;html=1;exitX=0.75;exitY=0;exitDx=0;exitDy=0;entryX=0.282;entryY=0.991;entryDx=0;entryDy=0;entryPerimeter=0;" edge="1" parent="WIyWlLk6GJQsqaUBKTNV-1" source="3dYXH3wcypNw3MDqK7I_-42" target="3dYXH3wcypNw3MDqK7I_-46">
          <mxGeometry relative="1" as="geometry" />
        </mxCell>
        <mxCell id="3dYXH3wcypNw3MDqK7I_-62" value="&lt;b&gt;Long-Term/Entity Memory Query Tool&lt;/b&gt;&lt;div&gt;Retrieve relevant memories for a given query.&lt;/div&gt;" style="ellipse;whiteSpace=wrap;html=1;fillColor=#FFD966;" vertex="1" parent="WIyWlLk6GJQsqaUBKTNV-1">
          <mxGeometry x="650" y="689.5" width="270" height="70" as="geometry" />
        </mxCell>
        <mxCell id="3dYXH3wcypNw3MDqK7I_-64" style="edgeStyle=orthogonalEdgeStyle;rounded=0;orthogonalLoop=1;jettySize=auto;html=1;entryX=1;entryY=0.5;entryDx=0;entryDy=0;" edge="1" parent="WIyWlLk6GJQsqaUBKTNV-1" source="3dYXH3wcypNw3MDqK7I_-63" target="3dYXH3wcypNw3MDqK7I_-62">
          <mxGeometry relative="1" as="geometry" />
        </mxCell>
        <mxCell id="3dYXH3wcypNw3MDqK7I_-63" value="&lt;b&gt;Memory Consolidator Agent&lt;/b&gt;&lt;div&gt;Goal: Merge memories that are similar to each other, and purge memories that are no longer relevant.&lt;/div&gt;&lt;div&gt;Output: Multi-turn tool calls retrieving, updating, and deleting memories&lt;/div&gt;" style="rounded=0;whiteSpace=wrap;html=1;fontSize=12;glass=0;strokeWidth=1;shadow=0;labelBackgroundColor=none;fillColor=#A8DADC;strokeColor=#457B9D;fontColor=#1D3557;" vertex="1" parent="WIyWlLk6GJQsqaUBKTNV-1">
          <mxGeometry x="960" y="669.5" width="240" height="110" as="geometry" />
        </mxCell>
        <mxCell id="3dYXH3wcypNw3MDqK7I_-66" style="edgeStyle=orthogonalEdgeStyle;rounded=0;orthogonalLoop=1;jettySize=auto;html=1;entryX=0;entryY=0.5;entryDx=0;entryDy=0;" edge="1" parent="WIyWlLk6GJQsqaUBKTNV-1" source="3dYXH3wcypNw3MDqK7I_-65" target="3dYXH3wcypNw3MDqK7I_-46">
          <mxGeometry relative="1" as="geometry" />
        </mxCell>
        <mxCell id="3dYXH3wcypNw3MDqK7I_-70" style="edgeStyle=orthogonalEdgeStyle;rounded=0;orthogonalLoop=1;jettySize=auto;html=1;entryX=1;entryY=0.5;entryDx=0;entryDy=0;" edge="1" parent="WIyWlLk6GJQsqaUBKTNV-1" source="3dYXH3wcypNw3MDqK7I_-65" target="3dYXH3wcypNw3MDqK7I_-69">
          <mxGeometry relative="1" as="geometry" />
        </mxCell>
        <mxCell id="3dYXH3wcypNw3MDqK7I_-65" value="&lt;b&gt;Reasoning Agent&lt;/b&gt;&lt;div&gt;Goal: Given a query requiring multi-stage reasoning and agent/tool descriptions, answer the query.&lt;/div&gt;&lt;div&gt;Output: Multi-turn reasoning and/or tool call, ending with a factual answer.&lt;/div&gt;" style="rounded=0;whiteSpace=wrap;html=1;fontSize=12;glass=0;strokeWidth=1;shadow=0;labelBackgroundColor=none;fillColor=#A8DADC;strokeColor=#457B9D;fontColor=#1D3557;" vertex="1" parent="WIyWlLk6GJQsqaUBKTNV-1">
          <mxGeometry x="560" y="150" width="210" height="110" as="geometry" />
        </mxCell>
        <mxCell id="3dYXH3wcypNw3MDqK7I_-68" style="edgeStyle=orthogonalEdgeStyle;rounded=0;orthogonalLoop=1;jettySize=auto;html=1;exitX=0.25;exitY=0;exitDx=0;exitDy=0;entryX=0.705;entryY=0.992;entryDx=0;entryDy=0;entryPerimeter=0;" edge="1" parent="WIyWlLk6GJQsqaUBKTNV-1" source="3dYXH3wcypNw3MDqK7I_-42" target="3dYXH3wcypNw3MDqK7I_-65">
          <mxGeometry relative="1" as="geometry" />
        </mxCell>
        <mxCell id="3dYXH3wcypNw3MDqK7I_-71" style="edgeStyle=orthogonalEdgeStyle;rounded=0;orthogonalLoop=1;jettySize=auto;html=1;exitX=1;exitY=0.75;exitDx=0;exitDy=0;" edge="1" parent="WIyWlLk6GJQsqaUBKTNV-1" source="3dYXH3wcypNw3MDqK7I_-69" target="3dYXH3wcypNw3MDqK7I_-42">
          <mxGeometry relative="1" as="geometry">
            <mxPoint x="630" y="330" as="targetPoint" />
            <Array as="points">
              <mxPoint x="520" y="233" />
              <mxPoint x="520" y="330" />
            </Array>
          </mxGeometry>
        </mxCell>
        <mxCell id="3dYXH3wcypNw3MDqK7I_-69" value="&lt;b&gt;Quality Control Agent&lt;/b&gt;&lt;div&gt;Goal: Given a query and its supposed answer, determine whether the answer is accurate and complete. If not, delegate work to other agents.&lt;/div&gt;&lt;div&gt;Output: Concise evaluation/delegation.&lt;/div&gt;" style="rounded=0;whiteSpace=wrap;html=1;fontSize=12;glass=0;strokeWidth=1;shadow=0;labelBackgroundColor=none;fillColor=#A8DADC;strokeColor=#457B9D;fontColor=#1D3557;" vertex="1" parent="WIyWlLk6GJQsqaUBKTNV-1">
          <mxGeometry x="260" y="150" width="230" height="110" as="geometry" />
        </mxCell>
        <mxCell id="3dYXH3wcypNw3MDqK7I_-73" style="edgeStyle=orthogonalEdgeStyle;rounded=0;orthogonalLoop=1;jettySize=auto;html=1;" edge="1" parent="WIyWlLk6GJQsqaUBKTNV-1" source="3dYXH3wcypNw3MDqK7I_-72" target="3dYXH3wcypNw3MDqK7I_-63">
          <mxGeometry relative="1" as="geometry" />
        </mxCell>
        <mxCell id="3dYXH3wcypNw3MDqK7I_-72" value="&lt;span style=&quot;color: rgb(29, 53, 87);&quot;&gt;Periodic updates&lt;/span&gt;" style="shape=hexagon;perimeter=hexagonPerimeter2;whiteSpace=wrap;html=1;fixedSize=1;fillColor=#C3ABD0;" vertex="1" parent="WIyWlLk6GJQsqaUBKTNV-1">
          <mxGeometry x="1240" y="709" width="140" height="31" as="geometry" />
        </mxCell>
        <mxCell id="3dYXH3wcypNw3MDqK7I_-74" value="&lt;b&gt;YouTube Video Tool&lt;/b&gt;&lt;div&gt;&lt;span style=&quot;color: rgb(29, 53, 87);&quot;&gt;Understand a YouTube video.&lt;/span&gt;&lt;br&gt;&lt;/div&gt;" style="ellipse;whiteSpace=wrap;html=1;fillColor=#FFD966;" vertex="1" parent="WIyWlLk6GJQsqaUBKTNV-1">
          <mxGeometry x="1120" y="10" width="190" height="50" as="geometry" />
        </mxCell>
        <mxCell id="3dYXH3wcypNw3MDqK7I_-77" value="&lt;b&gt;Todo&lt;/b&gt;&lt;div&gt;Identifying existing relationships&lt;/div&gt;&lt;div&gt;Voice chat (needs real-time)&lt;/div&gt;&lt;div&gt;&lt;br&gt;&lt;/div&gt;" style="rounded=0;whiteSpace=wrap;html=1;fontSize=12;glass=0;strokeWidth=1;shadow=0;labelBackgroundColor=none;fillColor=#A8DADC;strokeColor=#457B9D;fontColor=#1D3557;" vertex="1" parent="WIyWlLk6GJQsqaUBKTNV-1">
          <mxGeometry x="40" y="750" width="210" height="110" as="geometry" />
        </mxCell>
      </root>
    </mxGraphModel>
  </diagram>
  <diagram id="K_6LgQJXlMjx6SDJa-CJ" name="v1">
    <mxGraphModel dx="1030" dy="537" grid="1" gridSize="10" guides="1" tooltips="1" connect="1" arrows="1" fold="1" page="1" pageScale="1" pageWidth="1600" pageHeight="900" math="0" shadow="0">
      <root>
        <mxCell id="0" />
        <mxCell id="1" parent="0" />
        <mxCell id="GKnyct8Lbo6_V63q11x7-1" style="edgeStyle=orthogonalEdgeStyle;rounded=0;orthogonalLoop=1;jettySize=auto;html=1;entryX=1;entryY=0.5;entryDx=0;entryDy=0;" edge="1" parent="1">
          <mxGeometry relative="1" as="geometry">
            <mxPoint x="630" y="170" as="sourcePoint" />
            <mxPoint x="440" y="195" as="targetPoint" />
            <Array as="points">
              <mxPoint x="630" y="195" />
            </Array>
          </mxGeometry>
        </mxCell>
        <mxCell id="GKnyct8Lbo6_V63q11x7-2" value="&lt;b&gt;Discord Chat Parser Agent&lt;/b&gt;&lt;div&gt;Goal: Get the gist of recent/new text messages, turning long texts into a more useable form.&lt;/div&gt;&lt;div&gt;Output: Concise, text-based message history&lt;/div&gt;" style="rounded=0;whiteSpace=wrap;html=1;fontSize=12;glass=0;strokeWidth=1;shadow=0;labelBackgroundColor=none;fillColor=#A8DADC;strokeColor=#457B9D;fontColor=#1D3557;" vertex="1" parent="1">
          <mxGeometry x="600" y="130" width="200" height="120" as="geometry" />
        </mxCell>
        <mxCell id="GKnyct8Lbo6_V63q11x7-3" style="edgeStyle=orthogonalEdgeStyle;rounded=0;orthogonalLoop=1;jettySize=auto;html=1;entryX=0;entryY=0.5;entryDx=0;entryDy=0;" edge="1" parent="1" source="GKnyct8Lbo6_V63q11x7-5" target="GKnyct8Lbo6_V63q11x7-6">
          <mxGeometry relative="1" as="geometry" />
        </mxCell>
        <mxCell id="GKnyct8Lbo6_V63q11x7-4" value="" style="edgeStyle=orthogonalEdgeStyle;rounded=0;orthogonalLoop=1;jettySize=auto;html=1;" edge="1" parent="1" source="GKnyct8Lbo6_V63q11x7-5" target="GKnyct8Lbo6_V63q11x7-6">
          <mxGeometry relative="1" as="geometry" />
        </mxCell>
        <mxCell id="GKnyct8Lbo6_V63q11x7-5" value="&lt;b&gt;Discord Chat Sender Agent&lt;/b&gt;&lt;div&gt;Goal: Given info needed to send a response, convey a desired message/tone in a consistent, Discord-appropriate style, possibly with &amp;gt;1 message.&lt;/div&gt;&lt;div&gt;Output: Text(s) to send&lt;/div&gt;" style="rounded=0;whiteSpace=wrap;html=1;fontSize=12;glass=0;strokeWidth=1;shadow=0;labelBackgroundColor=none;fillColor=#A8DADC;strokeColor=#FF0000;fontColor=#1D3557;" vertex="1" parent="1">
          <mxGeometry x="570" y="275" width="230" height="100" as="geometry" />
        </mxCell>
        <mxCell id="GKnyct8Lbo6_V63q11x7-6" value="&lt;span style=&quot;color: rgb(29, 53, 87);&quot;&gt;Send messages with simulated delays, stopping if someone else is typing/sends a new text&lt;/span&gt;" style="shape=hexagon;perimeter=hexagonPerimeter2;whiteSpace=wrap;html=1;fixedSize=1;fillColor=#C3ABD0;" vertex="1" parent="1">
          <mxGeometry x="840" y="285" width="200" height="80" as="geometry" />
        </mxCell>
        <mxCell id="GKnyct8Lbo6_V63q11x7-7" style="edgeStyle=orthogonalEdgeStyle;rounded=0;orthogonalLoop=1;jettySize=auto;html=1;exitX=1;exitY=0.75;exitDx=0;exitDy=0;entryX=0;entryY=0.5;entryDx=0;entryDy=0;" edge="1" parent="1" source="GKnyct8Lbo6_V63q11x7-9" target="GKnyct8Lbo6_V63q11x7-5">
          <mxGeometry relative="1" as="geometry" />
        </mxCell>
        <mxCell id="GKnyct8Lbo6_V63q11x7-9" value="&lt;b&gt;Decision Making Agent&lt;/b&gt;&lt;div&gt;Goal: Given a concise message history and agent descriptions, decide whether to respond to the message. If so, call the Discord Chat Sender Agent.&lt;/div&gt;&lt;div&gt;Output: Decision to respond or not respond.&lt;/div&gt;" style="rounded=0;whiteSpace=wrap;html=1;fontSize=12;glass=0;strokeWidth=1;shadow=0;labelBackgroundColor=none;fillColor=#A8DADC;strokeColor=#457B9D;fontColor=#1D3557;" vertex="1" parent="1">
          <mxGeometry x="130" y="130" width="310" height="190" as="geometry" />
        </mxCell>
        <mxCell id="GKnyct8Lbo6_V63q11x7-10" style="edgeStyle=orthogonalEdgeStyle;rounded=0;orthogonalLoop=1;jettySize=auto;html=1;entryX=1;entryY=0.5;entryDx=0;entryDy=0;" edge="1" parent="1" source="GKnyct8Lbo6_V63q11x7-11" target="GKnyct8Lbo6_V63q11x7-2">
          <mxGeometry relative="1" as="geometry" />
        </mxCell>
        <mxCell id="GKnyct8Lbo6_V63q11x7-11" value="&lt;span style=&quot;color: rgb(29, 53, 87);&quot;&gt;New message (pinged or not)&lt;/span&gt;" style="shape=hexagon;perimeter=hexagonPerimeter2;whiteSpace=wrap;html=1;fixedSize=1;fillColor=#C3ABD0;" vertex="1" parent="1">
          <mxGeometry x="840" y="175" width="190" height="30" as="geometry" />
        </mxCell>
        <mxCell id="S5kUnjPeNAVGbe7xp-_T-1" value="Boxes: Agents&lt;div&gt;Ovals: Tools&lt;/div&gt;&lt;div&gt;Hexagons: Code&lt;/div&gt;&lt;div&gt;Red: NSFW Model&lt;/div&gt;" style="shape=process;whiteSpace=wrap;html=1;backgroundOutline=1;fillColor=#97D077;fontStyle=0" vertex="1" parent="1">
          <mxGeometry x="20" y="20" width="200" height="80" as="geometry" />
        </mxCell>
      </root>
    </mxGraphModel>
  </diagram>
</mxfile>
